<?xml version="1.0" encoding="utf-8" ?><svg xmlns="http://www.w3.org/2000/svg" xmlns:xlink="http://www.w3.org/1999/xlink" width="1996" height="1127" viewBox="0 0 1996 1127"><path fill="#C7382E" d="M528.258 75.3709L1465.72 75.4784C1473.24 85.5744 1484.51 104.483 1491.75 115.773L1542.31 194.636L1694.76 433.116C1695.13 474.187 1697.7 507.809 1677.95 545.576C1660.38 579.187 1635.21 601.353 1598.85 612.087C1566.51 621.632 1515.18 621.023 1485.5 603.966C1448.15 582.495 1423.55 550.519 1411.19 509.989L1411.08 510.916C1407.7 536.589 1384 573.314 1362.43 588.684C1324.69 615.577 1292.67 622.178 1247.55 615.839C1233.18 613.699 1217.06 606.467 1204.8 598.96C1163.28 573.524 1147.97 543.557 1136.81 498.174C1130.41 543.843 1098.68 590.259 1054.9 607.285C1019.54 621.04 969.877 621.429 934.815 606.255C906.511 594.005 881.211 565.82 868.89 537.831C864.256 527.324 861.808 518.703 857.739 508.456C855.314 519.189 851.621 529.594 846.738 539.454C830.469 573.082 801.331 598.727 765.916 610.586C733.766 621.463 689.049 620.652 658.194 605.01C615.719 583.476 595.792 554.077 580.701 509.711C577.158 538.634 562.004 561.435 541.745 581.37C509.688 614.706 479.743 617.234 436.199 617.221C382.298 617.206 336.553 587.835 313.84 538.548C298.048 504.277 301.117 468.56 301.264 431.936C307.281 423.964 317.961 405.89 323.686 396.8C337.82 374.225 352.094 351.738 366.506 329.34L528.258 75.3709Z"/><path fill="#F9F4ED" d="M713.022 82.8698L899.782 82.9779C897.599 110.933 892.05 147.064 888.452 175.451L866.735 345.975C863.391 372.019 858.395 404.411 856.521 430.222L772.378 430.236L584.812 430.115C621.211 327.26 660.345 225.147 697.834 122.671C702.694 109.385 707.653 95.9458 713.022 82.8698Z"/><path fill="#F9F4ED" d="M1095.05 82.8808C1156.95 83.6864 1220.72 82.8591 1282.77 82.8344C1324.95 197.87 1368.43 314.585 1409.1 430.007L1137.67 429.984C1136.21 404.36 1129.79 363.816 1126.53 337.436L1106.35 174.979C1102.61 145.152 1097.86 112.644 1095.05 82.8808Z"/><path fill="#00283E" d="M529.311 726.74C545.524 725.926 566.307 726.513 582.686 726.672C584.709 731.089 586.622 735.64 588.395 740.163C601.556 773.739 617.24 806.461 630.14 840.119C634.097 832.949 642.205 809.345 645.646 800.217L673.14 728.188C687.955 725.942 713.016 726.527 728.949 726.494C729.153 734.694 728.851 742.701 728.603 750.896L728.528 960.933C716.833 962.891 695.955 962.323 683.268 962.278C683.274 949.926 682.546 911.778 684.03 901.361C683.429 897.691 683.406 879.264 683.342 874.656C682.952 848.134 683.154 821.607 683.949 795.094C673.872 828.11 663.523 860.079 650.915 892.304C646.531 903.51 639.961 919.269 637.329 930.752C631.317 930.953 625.014 930.744 618.978 930.644C604.618 895.361 586.989 843.918 574.795 807.441C573.026 830.513 574.433 860.909 573.877 884.912C574.177 910.681 574.275 936.451 574.172 962.221C559.463 962.155 543.884 961.858 529.258 962.293C529.298 957.327 529.236 952.001 529.402 947.073C528.603 921.922 529.212 894.166 529.213 868.787L529.311 726.74Z"/><path fill="#061D2E" d="M684.456 958.757C694.706 959.043 705.926 957.346 716.341 957.949C719.877 958.154 723.511 959.801 725.527 958.816C727.356 949.217 726.646 916.072 726.644 903.956L726.591 792.188C726.584 784.771 725.998 757.388 727.043 751.417L728.603 750.896L728.528 960.933C716.833 962.891 695.955 962.323 683.268 962.278C683.274 949.926 682.546 911.778 684.03 901.361C685.379 909.875 684.447 947.58 684.456 958.757Z"/><path fill="#061D2E" d="M529.402 947.073C530.131 950.688 529.678 951.643 530.925 956.05C533.833 958.897 567.534 959.386 571.402 957.993C572.805 951.643 571.799 945.77 572.219 939.898C573.122 927.254 571.571 896.629 573.72 885.674L573.877 884.912C574.177 910.681 574.275 936.451 574.172 962.221C559.463 962.155 543.884 961.858 529.258 962.293C529.298 957.327 529.236 952.001 529.402 947.073Z"/><path fill="#00283E" d="M968.759 733.129C968.84 729.851 968.341 728.167 969.815 725.641C978.533 724.834 1003.53 725.282 1012.06 726.512L1023.22 726.696C1042.67 726.5 1058.8 725.303 1077.57 731.42C1130.1 739.863 1140.29 841.377 1084 866.245C1095.97 891.498 1119.11 936.873 1133.57 960.11C1115.03 960.214 1094.95 962.667 1077.97 962.332C1070.33 945.243 1062.59 928.196 1054.76 911.191C1049.03 899.001 1042.53 886.748 1037.1 874.559L1018.43 874.558C1018.39 880.96 1018.12 887.163 1017.61 893.543C1015.86 915.587 1016.35 938.013 1016.37 960.125C1008.98 960.449 997.831 961.262 990.724 960.997L968.332 961.378L968.767 942.401C967.864 918.571 968.823 887.286 968.968 862.65C969.402 819.477 969.332 776.3 968.759 733.129ZM1016.48 820.558L1016.46 834.873C1031.84 834.137 1052.38 838.655 1063.93 826.779C1076.43 814.268 1077.45 788.191 1064.47 775.687C1053.16 764.788 1032.25 766.843 1017.52 767.402L1016.27 768.944C1016.49 786.148 1016.56 803.353 1016.48 820.558Z"/><path fill="#01050A" d="M1023.22 726.696C1042.67 726.5 1058.8 725.303 1077.57 731.42C1074.82 732.378 1026.23 729.978 1023.22 726.696Z"/><path fill="#01050A" d="M968.759 733.129C968.84 729.851 968.341 728.167 969.815 725.641C978.533 724.834 1003.53 725.282 1012.06 726.512C1000.54 730.414 986.657 726.609 974.704 728.39C970.779 728.975 970.757 730.166 968.759 733.129Z"/><path fill="#061D2E" d="M968.767 942.401C971.129 949.039 971.363 952.513 972.156 959.421C976.348 959.718 986.958 960.289 990.724 960.997L968.332 961.378L968.767 942.401Z"/><path fill="#061D2E" d="M1016.48 820.558C1016.13 819.649 1015.79 818.734 1015.48 817.812C1012.42 808.793 1011.83 777.906 1016.27 768.944C1016.49 786.148 1016.56 803.353 1016.48 820.558Z"/><path fill="#00283E" d="M815.826 727.412C816.584 726.256 816.506 725.785 817.478 725.705C825.566 725.039 873.199 724.361 877.652 725.628C878.329 727.331 879.107 729.154 879.647 730.886C899.094 808.474 920.254 885.623 943.111 962.275C925.811 961.843 907.084 962.238 889.678 962.279L877.273 910.585C865.387 909.138 827.969 909.917 814.45 909.789C810.303 921.792 805.391 948.301 801.608 962.275C785.507 962.331 769.405 962.27 753.304 962.092C759.377 937.051 768.27 909.457 775.196 884.142C784.655 848.566 793.793 812.904 802.608 777.162C806.432 762.241 812.914 741.751 815.826 727.412ZM822.794 870.748L844.499 870.819L867.166 870.83C860.415 843.006 853.299 815.175 847.853 787.07C847.283 784.128 846.929 781.361 845.842 778.537C840.756 790.939 823.753 857.684 822.794 870.748Z"/><path fill="#01050A" d="M815.826 727.412C816.584 726.256 816.506 725.785 817.478 725.705C825.566 725.039 873.199 724.361 877.652 725.628C878.329 727.331 879.107 729.154 879.647 730.886C879.36 730.818 879.051 730.812 878.785 730.684C864.577 723.786 833.34 731.517 815.826 727.412Z"/><path fill="#00283E" d="M1265.75 726.607C1273.5 723.19 1315.17 725.411 1326.51 725.175C1325.14 727.056 1323.43 729.193 1322.47 731.267C1317.23 742.157 1300.29 765.138 1293.21 775.197C1282.09 790.996 1271.3 807.021 1260.33 822.913C1274.3 857.438 1294.3 891.961 1312.62 924.332C1318.19 934.178 1329.33 954.568 1336.3 962.084C1318.4 961.407 1297.7 962.037 1279.42 961.943C1264.29 938.874 1241.9 897.13 1228.33 871.91C1221.18 879.749 1212.38 891.42 1205.57 899.911C1205.74 919.807 1205.4 942.573 1206.47 962.234C1190.62 962.203 1174.78 962.381 1158.94 962.767C1158.22 933.305 1158.73 902.583 1158.77 873.054L1158.82 726.697C1166.38 726.48 1199.41 726.703 1205.45 727.229C1205.69 761.143 1205.04 795.249 1205.67 829.146C1226.72 796.891 1245.82 760.118 1265.75 726.607Z"/><path fill="#01050A" d="M1265.75 726.607C1273.5 723.19 1315.17 725.411 1326.51 725.175C1325.14 727.056 1323.43 729.193 1322.47 731.267C1322.07 730.683 1321.59 729.976 1321.02 729.146C1310.8 726.247 1273.55 730.586 1265.75 726.607Z"/><path fill="#00283E" d="M443.494 728.01C454.761 725.272 476.048 726.2 488.338 726.268L488.377 845.732C488.359 865.027 489.319 885.786 487.123 904.87C483.401 937.57 457.982 960.539 425.967 964.616C371.307 971.579 330.467 948.135 330.705 889.106C330.914 836.998 330.583 787.581 330.551 735.691C330.55 733.215 330.66 729.803 331.99 727.884C338.791 726.559 367.382 726.875 375.752 727.078C376.054 741.892 376.101 756.711 375.893 771.528C376.832 808.916 374.711 849.99 376.303 886.459C376.635 887.156 376.753 887.197 376.799 887.859C377.399 896.397 380.985 908.837 386.853 915.369C392.542 921.498 401.184 922.264 408.91 922.564C427.523 923.285 439.157 912.339 441.749 894.114C444.703 873.353 443.646 851.588 443.617 830.497L443.494 728.01Z"/><path fill="#061D2E" d="M376.303 886.459C371.591 879.742 373.434 850.097 374.64 841.063C376.487 827.234 372.252 782.386 375.893 771.528C376.832 808.916 374.711 849.99 376.303 886.459Z"/><path fill="#00283E" d="M1386.58 726.398C1417.91 726.157 1454.35 724.894 1485.25 725.687C1485.6 734.695 1486.45 747.041 1486.18 755.81C1486.19 760.106 1486.3 764.814 1486.14 769.072C1459.28 768.804 1432.38 769.577 1405.33 769.39L1404.35 771.011C1404.39 787.699 1404.77 805.835 1404.25 822.406C1421.66 822.164 1454.59 821.772 1471.5 822.999L1473.72 823.621C1474.87 828.962 1475.48 854.432 1473.45 858.787L1471.43 859.386C1463.79 858.779 1408.66 857.992 1404.6 859.792L1404.48 861.558L1404.39 918.242C1407.25 920.389 1477.28 919.742 1486.24 919.582C1489.73 923.676 1487.37 953.773 1487.01 960.795C1486.12 962.174 1486.69 961.897 1485.51 962.283C1463.6 962.385 1441.7 962.328 1419.79 962.109C1405.5 962.333 1391.2 962.342 1376.91 962.137L1355.89 962.23C1354.86 919.793 1358.12 875.715 1356.55 833.114C1356.05 819.526 1356.61 805.681 1356.14 791.953C1355.94 773.188 1354.83 745.929 1355.96 727.82C1357.7 725.996 1359.74 726.36 1362.82 725.959C1370.05 726.643 1379.16 726.407 1386.58 726.398Z"/><path fill="#01050A" d="M1386.58 726.398C1417.91 726.157 1454.35 724.894 1485.25 725.687C1485.6 734.695 1486.45 747.041 1486.18 755.81C1481.52 748.373 1482.55 737.103 1482.57 728.44C1471.26 728.558 1391.41 728.166 1386.58 726.398Z"/><path fill="#061D2E" d="M1356.14 791.953C1355.94 773.188 1354.83 745.929 1355.96 727.82C1357.7 725.996 1359.74 726.36 1362.82 725.959L1363.61 727.736C1354.41 735.781 1363.59 781.449 1356.14 791.953Z"/><path fill="#01050A" d="M1404.48 861.558L1404.39 918.242C1397.65 910.525 1400.2 870.724 1404.48 861.558Z"/><path fill="#01050A" d="M1404.25 822.406L1403.49 822.334C1399.53 816.267 1400.07 778.112 1404.35 771.011C1404.39 787.699 1404.77 805.835 1404.25 822.406Z"/><path fill="#01050A" d="M1376.91 962.137C1382.52 956.551 1413.14 957.05 1419.34 960.874L1419.79 962.109C1405.5 962.333 1391.2 962.342 1376.91 962.137Z"/><path fill="#01050A" d="M1486.24 919.582C1489.73 923.676 1487.37 953.773 1487.01 960.795C1486.12 962.174 1486.69 961.897 1485.51 962.283C1484.62 959.753 1485.42 923.229 1486.24 919.582Z"/><path fill="#061D2E" d="M1471.5 822.999L1473.72 823.621C1474.87 828.962 1475.48 854.432 1473.45 858.787L1471.43 859.386C1471.83 846.745 1472.27 835.653 1471.5 822.999Z"/><path fill="#00283E" d="M1620.25 724.615L1668.98 724.254C1667.87 737.457 1667.31 756.063 1667.49 769.264C1650.02 769.584 1632.54 769.618 1615.06 769.367L1614.56 893.894C1614.57 915.896 1615.25 940.553 1614.56 962.145L1566.34 962.242L1566.11 769.125C1556.55 769.415 1539.9 770.091 1530.73 769.256C1525.28 769.679 1519.38 769.407 1513.88 769.287C1513.69 755.1 1513.73 738.938 1514.47 724.869C1522.93 724.419 1534.84 725.46 1543.21 726.757C1550.37 726.092 1579.54 726.043 1586.99 726.603C1600.27 724.57 1606.75 724.352 1620.25 724.615Z"/><path fill="#061D2E" d="M1514.47 724.869C1522.93 724.419 1534.84 725.46 1543.21 726.757C1532.56 728.841 1527.56 727.497 1517.15 725.961C1516.93 740.332 1517.6 753.522 1517.61 767.645C1521.48 767.919 1527.26 768.073 1530.73 769.256C1525.28 769.679 1519.38 769.407 1513.88 769.287C1513.69 755.1 1513.73 738.938 1514.47 724.869Z"/><path fill="#01050A" d="M1586.99 726.603C1600.27 724.57 1606.75 724.352 1620.25 724.615C1625.32 725.304 1628.69 725.731 1633.77 725.832C1624.77 728.477 1595.3 730.163 1586.99 726.603Z"/></svg>